<svg xmlns="http://www.w3.org/2000/svg" width="64" height="64" viewBox="0 0 64 64">
  <rect width="64" height="64" rx="16" fill="#792f59"/>
  <g fill="#ffffff" stroke="none" transform="translate(10.75 9.3) scale(0.035)">
    <path d="M 123 973 L 125 990 L 127 995 L 127 999 L 131 1015 L 135 1025 L 135 1028 L 137 1031 L 139 1039 L 146 1054 L 146 1056 L 162 1086 L 178 1109 L 202 1136 L 227 1158 L 262 1181 L 297 1198 L 303 1199 L 320 1206 L 323 1206 L 346 1213 L 350 1213 L 361 1216 L 367 1216 L 368 1217 L 384 1218 L 385 1219 L 420 1219 L 421 1218 L 429 1218 L 430 1217 L 447 1215 L 458 1212 L 473 1206 L 487 1197 L 479 1198 L 474 1200 L 469 1200 L 468 1201 L 442 1203 L 441 1204 L 405 1204 L 404 1203 L 379 1201 L 344 1192 L 329 1186 L 320 1181 L 318 1181 L 294 1168 L 264 1145 L 246 1126 L 233 1109 L 215 1079 L 202 1045 L 203 1042 L 218 1063 L 245 1094 L 263 1111 L 284 1128 L 312 1146 L 343 1161 L 376 1172 L 380 1172 L 393 1176 L 406 1177 L 407 1178 L 419 1178 L 420 1179 L 441 1179 L 444 1178 L 432 1141 L 428 1134 L 424 1123 L 422 1121 L 410 1098 L 384 1063 L 364 1043 L 343 1026 L 340 1025 L 321 1012 L 289 996 L 262 986 L 259 986 L 252 983 L 240 980 L 230 979 L 219 976 L 206 975 L 205 974 L 187 973 L 186 972 L 171 972 L 170 971 L 145 971 L 144 972 Z"/>
    <path d="M 325 112 L 297 131 L 277 147 L 258 165 L 231 196 L 213 223 L 199 250 L 188 279 L 184 295 L 184 299 L 182 304 L 181 317 L 180 318 L 180 355 L 181 356 L 182 368 L 188 392 L 194 407 L 202 422 L 217 443 L 234 460 L 246 469 L 261 478 L 263 478 L 277 485 L 289 488 L 296 491 L 306 492 L 307 493 L 302 497 L 284 507 L 261 523 L 242 539 L 217 564 L 200 585 L 184 609 L 172 631 L 172 633 L 161 657 L 155 675 L 150 695 L 148 710 L 147 711 L 146 731 L 145 732 L 145 760 L 146 761 L 146 770 L 147 771 L 147 778 L 148 779 L 149 789 L 156 813 L 164 832 L 178 856 L 195 878 L 215 898 L 229 910 L 248 923 L 276 938 L 278 940 L 294 947 L 296 949 L 339 971 L 363 986 L 383 1001 L 398 1014 L 418 1034 L 438 1059 L 451 1080 L 451 1037 L 452 1036 L 452 1024 L 453 1023 L 455 1004 L 456 1003 L 460 982 L 465 968 L 465 965 L 467 962 L 472 947 L 477 938 L 477 936 L 489 914 L 494 908 L 504 892 L 519 874 L 541 852 L 561 835 L 604 806 L 653 778 L 677 762 L 696 747 L 730 713 L 732 709 L 741 699 L 760 669 L 774 639 L 782 615 L 786 599 L 788 583 L 789 582 L 790 546 L 789 545 L 788 529 L 787 528 L 783 507 L 784 506 L 861 506 L 862 507 L 872 507 L 873 508 L 885 509 L 906 515 L 919 521 L 933 530 L 951 548 L 959 560 L 966 574 L 971 593 L 971 599 L 972 600 L 972 626 L 971 627 L 971 634 L 970 635 L 970 640 L 967 652 L 962 665 L 953 682 L 942 697 L 930 710 L 916 722 L 900 733 L 875 745 L 871 749 L 876 752 L 899 755 L 934 765 L 952 773 L 972 785 L 992 801 L 1007 817 L 1021 836 L 1033 859 L 1042 885 L 1044 893 L 1044 898 L 1045 899 L 1045 904 L 1046 905 L 1046 911 L 1047 912 L 1047 921 L 1048 922 L 1048 954 L 1047 955 L 1047 963 L 1046 964 L 1046 970 L 1045 971 L 1043 986 L 1034 1015 L 1018 1047 L 1004 1067 L 976 1096 L 947 1117 L 910 1135 L 889 1142 L 869 1147 L 858 1148 L 857 1149 L 834 1151 L 833 1152 L 816 1152 L 815 1153 L 598 1153 L 597 1152 L 585 1151 L 576 1147 L 567 1137 L 565 1131 L 566 1111 L 571 1093 L 578 1079 L 586 1067 L 601 1052 L 615 1042 L 636 1033 L 650 1031 L 651 1030 L 674 1031 L 702 1039 L 705 1041 L 716 1044 L 738 1053 L 746 1055 L 752 1055 L 753 1056 L 763 1056 L 764 1055 L 773 1054 L 782 1049 L 787 1045 L 794 1034 L 796 1027 L 796 1014 L 795 1013 L 795 1004 L 794 1003 L 796 990 L 803 982 L 810 977 L 815 975 L 818 971 L 818 964 L 816 961 L 811 957 L 804 954 L 806 952 L 810 951 L 823 943 L 826 938 L 826 931 L 816 920 L 814 916 L 814 913 L 816 909 L 821 904 L 846 894 L 853 887 L 854 878 L 826 849 L 809 824 L 812 823 L 820 826 L 834 824 L 844 817 L 849 807 L 840 811 L 828 812 L 818 808 L 812 802 L 810 798 L 810 792 L 809 791 L 810 779 L 811 778 L 813 762 L 814 761 L 814 732 L 813 731 L 812 722 L 806 706 L 795 690 L 784 679 L 772 671 L 767 687 L 758 708 L 745 729 L 728 750 L 708 770 L 676 796 L 620 834 L 574 869 L 542 899 L 520 925 L 501 954 L 492 972 L 492 974 L 489 978 L 479 1007 L 479 1011 L 476 1020 L 474 1035 L 473 1036 L 472 1056 L 471 1057 L 471 1074 L 472 1075 L 473 1092 L 474 1093 L 478 1114 L 483 1128 L 495 1150 L 506 1164 L 522 1179 L 538 1190 L 557 1199 L 585 1206 L 594 1206 L 595 1207 L 864 1207 L 865 1206 L 888 1205 L 889 1204 L 894 1204 L 895 1203 L 915 1200 L 945 1191 L 957 1185 L 964 1183 L 986 1172 L 1001 1163 L 1031 1141 L 1066 1107 L 1084 1085 L 1088 1078 L 1096 1068 L 1103 1054 L 1105 1052 L 1113 1036 L 1116 1026 L 1118 1023 L 1129 985 L 1129 980 L 1131 973 L 1131 965 L 1132 964 L 1132 954 L 1133 953 L 1132 907 L 1131 906 L 1129 886 L 1119 851 L 1116 846 L 1112 834 L 1094 803 L 1089 798 L 1079 784 L 1060 765 L 1048 755 L 1023 739 L 1002 729 L 995 727 L 993 725 L 1011 707 L 1023 692 L 1030 681 L 1040 659 L 1046 637 L 1047 624 L 1048 623 L 1048 595 L 1047 594 L 1046 580 L 1043 570 L 1043 566 L 1036 545 L 1031 536 L 1030 532 L 1014 508 L 1004 497 L 985 481 L 970 471 L 943 458 L 912 449 L 896 447 L 895 446 L 889 446 L 888 445 L 879 445 L 878 444 L 707 444 L 702 447 L 700 450 L 700 456 L 710 482 L 714 499 L 714 504 L 715 505 L 716 521 L 717 522 L 717 544 L 716 545 L 716 554 L 715 555 L 714 567 L 710 584 L 703 603 L 694 622 L 673 653 L 666 660 L 661 667 L 644 684 L 621 704 L 573 741 L 541 768 L 507 802 L 486 828 L 466 859 L 453 884 L 453 886 L 444 906 L 438 924 L 432 948 L 432 953 L 430 960 L 430 968 L 429 969 L 429 977 L 428 978 L 428 985 L 427 986 L 420 977 L 405 962 L 395 954 L 369 937 L 348 926 L 338 919 L 323 911 L 298 893 L 280 877 L 263 858 L 253 844 L 245 831 L 236 812 L 226 782 L 224 767 L 223 766 L 223 758 L 222 757 L 222 721 L 223 720 L 224 706 L 225 705 L 229 684 L 234 669 L 248 639 L 264 614 L 279 595 L 303 571 L 327 552 L 353 536 L 378 524 L 408 513 L 424 510 L 433 507 L 442 506 L 443 505 L 464 503 L 465 502 L 623 502 L 635 499 L 646 493 L 653 484 L 656 475 L 656 466 L 654 459 L 651 454 L 642 446 L 634 442 L 626 440 L 470 440 L 469 441 L 442 442 L 441 443 L 433 443 L 432 444 L 420 444 L 419 445 L 410 445 L 409 446 L 371 447 L 370 446 L 361 446 L 360 445 L 354 445 L 353 444 L 340 442 L 328 438 L 317 432 L 313 431 L 293 416 L 280 402 L 275 395 L 264 374 L 259 357 L 258 346 L 257 345 L 257 316 L 258 315 L 258 308 L 259 307 L 262 290 L 276 257 L 293 231 L 311 210 L 330 193 L 355 175 L 374 164 L 406 150 L 439 140 L 443 140 L 454 137 L 460 137 L 461 136 L 479 135 L 480 134 L 804 134 L 819 128 L 826 122 L 832 113 L 835 100 L 834 99 L 834 92 L 830 83 L 818 72 L 808 68 L 803 68 L 802 67 L 474 67 L 473 68 L 456 68 L 455 69 L 440 70 L 439 71 L 434 71 L 433 72 L 406 77 L 396 81 L 393 81 L 381 85 L 366 92 L 364 92 Z"/>
  </g>
</svg>
